<?xml version="1.0" encoding="utf-8"?>
<!-- Generator: Adobe Illustrator 22.1.0, SVG Export Plug-In . SVG Version: 6.00 Build 0)  -->
<svg version="1.1" id="Layer_1" xmlns="http://www.w3.org/2000/svg" xmlns:xlink="http://www.w3.org/1999/xlink" x="0px" y="0px" width="259px" height="58px"
	 viewBox="0 0 992.1 184.3" style="enable-background:new 0 0 992.1 184.3;" xml:space="preserve">
<style type="text/css">
	.st0{fill:none;}
	.st1{fill:#F28E00;}
	.st2{fill:#BE1622;}
	.st3{fill:#E42313;}
	.st4{fill:#FAB700;}
	.st5{fill:#FFFFFF;}
</style>
<g>
	<g>
		<path class="st0" d="M181,79.4c0,0.7,0.1,1.3,0.1,2C181.1,80.7,181.1,80,181,79.4z"/>
		<path class="st0" d="M181.1,88.6c0,0.7-0.1,1.3-0.1,2C181.1,90,181.1,89.3,181.1,88.6z"/>
		<path class="st0" d="M96.6,6.2c0.7,0,1.3-0.1,2-0.1C97.9,6.1,97.3,6.2,96.6,6.2z"/>
		<path class="st0" d="M98.6,163.9c-0.7,0-1.3-0.1-2-0.1C97.3,163.8,97.9,163.9,98.6,163.9z"/>
		<path class="st0" d="M23.4,90.6c0-0.7-0.1-1.3-0.1-2C23.3,89.3,23.4,90,23.4,90.6z"/>
		<path class="st0" d="M23.3,81.4c0-0.7,0.1-1.3,0.1-2C23.4,80,23.3,80.7,23.3,81.4z"/>
		<path class="st0" d="M105.9,6.1c0.7,0,1.3,0.1,2,0.1C107.2,6.2,106.5,6.1,105.9,6.1z"/>
		<path class="st0" d="M105.9,163.9c0.7,0,1.3-0.1,2-0.1C107.2,163.8,106.5,163.9,105.9,163.9z"/>
		<path class="st0" d="M96.6,163.8c-0.4,0-0.9-0.1-1.3-0.1C95.7,163.7,96.2,163.8,96.6,163.8z"/>
		<path class="st0" d="M109.2,163.7c-0.4,0-0.9,0.1-1.3,0.1C108.3,163.8,108.7,163.7,109.2,163.7z"/>
		<path class="st0" d="M102.2,164c-1.2,0-2.4,0-3.6-0.1C99.8,164,101,164,102.2,164z"/>
		<path class="st0" d="M105.9,163.9c-1.2,0.1-2.4,0.1-3.6,0.1C103.4,164,104.7,164,105.9,163.9z"/>
		<path class="st0" d="M95.3,6.3c0.4,0,0.9-0.1,1.3-0.1C96.2,6.2,95.7,6.3,95.3,6.3z"/>
		<path class="st0" d="M107.8,6.2c0.4,0,0.9,0.1,1.3,0.1C108.7,6.3,108.3,6.2,107.8,6.2z"/>
		<path class="st0" d="M102.2,6c1.2,0,2.4,0,3.6,0.1C104.7,6,103.4,6,102.2,6z"/>
		<path class="st0" d="M98.6,6.1C99.8,6,101,6,102.2,6C101,6,99.8,6,98.6,6.1z"/>
		<path class="st0" d="M23.4,79.4c0-0.4,0.1-0.9,0.1-1.3C23.5,78.5,23.5,78.9,23.4,79.4z"/>
		<path class="st0" d="M23.5,92c0-0.4-0.1-0.9-0.1-1.3C23.5,91.1,23.5,91.5,23.5,92z"/>
		<path class="st0" d="M23.3,88.6c-0.1-1.2-0.1-2.4-0.1-3.6C23.2,86.2,23.2,87.4,23.3,88.6z"/>
		<path class="st0" d="M23.2,85c0-1.2,0-2.4,0.1-3.6C23.2,82.6,23.2,83.8,23.2,85z"/>
		<path class="st1" d="M156.3,139.1c-8.8,6.8-19.3,10.7-30.6,10.7c-8.4,0-16.4-2.2-23.5-6.1c-11.9-6.5-21.5-17.8-26.9-31.7
			c-3.2-8.2-5-17.3-5-26.9c0-9.6,1.8-18.7,5-26.9C61.3,63.5,50,73.1,43.5,85c-3.9,7.1-6.1,15.1-6.1,23.5c0,11.3,4,21.8,10.7,30.6
			c10.4,13.5,27.4,22.8,47.1,24.6c0.4,0,0.9,0.1,1.3,0.1c0.7,0,1.3,0.1,2,0.1c1.2,0.1,2.4,0.1,3.6,0.1c1.2,0,2.4,0,3.6-0.1
			c0.7,0,1.3-0.1,2-0.1c0.4,0,0.9-0.1,1.3-0.1c38.1-3.3,68.4-33.6,71.7-71.7C179.1,111.6,169.8,128.7,156.3,139.1z"/>
		<path class="st0" d="M181.1,81.4c0.1,1.2,0.1,2.4,0.1,3.6C181.2,83.8,181.2,82.6,181.1,81.4z"/>
		<path class="st0" d="M181.2,85c0,1.2,0,2.4-0.1,3.6C181.2,87.4,181.2,86.2,181.2,85z"/>
		<path class="st0" d="M181,90.6c0,0.4-0.1,0.9-0.1,1.3C180.9,91.5,181,91.1,181,90.6z"/>
		<path class="st0" d="M180.9,78c0,0.4,0.1,0.9,0.1,1.3C181,78.9,180.9,78.5,180.9,78z"/>
		<path class="st2" d="M156.3,30.9c-10.4-13.5-27.4-22.8-47.1-24.6c-0.4,0-0.9-0.1-1.3-0.1c-0.7,0-1.3-0.1-2-0.1
			C104.7,6,103.4,6,102.2,6c-1.2,0-2.4,0-3.6,0.1c-0.7,0-1.3,0.1-2,0.1c-0.4,0-0.9,0.1-1.3,0.1C57.2,9.6,26.9,40,23.5,78
			c1.8-19.7,11.2-36.7,24.6-47.1c8.8-6.8,19.3-10.7,30.6-10.7c8.4,0,16.4,2.2,23.5,6.1c11.9,6.5,21.5,17.8,26.9,31.7
			c3.2,8.2,5,17.3,5,26.9c0,9.6-1.8,18.7-5,26.9c14-5.5,25.2-15.1,31.7-26.9c3.9-7.1,6.1-15.1,6.1-23.5
			C167,50.2,163.1,39.7,156.3,30.9z"/>
		<path class="st3" d="M181.1,81.4c0-0.7-0.1-1.3-0.1-2c0-0.4-0.1-0.9-0.1-1.3C177.6,40,147.3,9.6,109.2,6.3
			c19.7,1.8,36.7,11.2,47.1,24.6c6.8,8.8,10.7,19.3,10.7,30.6c0,8.4-2.2,16.4-6.1,23.5c-6.5,11.9-17.8,21.5-31.7,26.9
			c-8.2,3.2-17.3,5-26.9,5c-9.6,0-18.7-1.8-26.9-5c5.5,14,15.1,25.2,26.9,31.7c7.1,3.9,15.1,6.1,23.5,6.1c11.3,0,21.8-4,30.6-10.7
			c13.5-10.4,22.8-27.4,24.6-47.1c0-0.4,0.1-0.9,0.1-1.3c0-0.7,0.1-1.3,0.1-2c0.1-1.2,0.1-2.4,0.1-3.6
			C181.2,83.8,181.2,82.6,181.1,81.4z"/>
		<path class="st4" d="M75.3,58c8.2-3.2,17.3-5,26.9-5c9.6,0,18.7,1.8,26.9,5c-5.5-14-15.1-25.2-26.9-31.7
			c-7.1-3.9-15.1-6.1-23.5-6.1c-11.3,0-21.8,4-30.6,10.7C34.7,41.3,25.3,58.3,23.5,78c0,0.4-0.1,0.9-0.1,1.3c0,0.7-0.1,1.3-0.1,2
			c-0.1,1.2-0.1,2.4-0.1,3.6c0,1.2,0,2.4,0.1,3.6c0,0.7,0.1,1.3,0.1,2c0,0.4,0.1,0.9,0.1,1.3c3.3,38.1,33.6,68.4,71.7,71.7
			c-19.7-1.8-36.7-11.2-47.1-24.6c-6.8-8.8-10.7-19.3-10.7-30.6c0-8.4,2.2-16.4,6.1-23.5C50,73.1,61.3,63.5,75.3,58z"/>
		<path class="st0" d="M129.2,58c-8.2-3.2-17.3-5-26.9-5c-9.6,0-18.7,1.8-26.9,5c-3.2,8.2-5,17.3-5,26.9c0,9.6,1.8,18.7,5,26.9
			c8.2,3.2,17.3,5,26.9,5c9.6,0,18.7-1.8,26.9-5c3.2-8.2,5-17.3,5-26.9C134.2,75.4,132.4,66.3,129.2,58z"/>
	</g>
	<g>
		<path class="st5" d="M226.1,144.6h-24.5V19h45.3c14.2,0,25.3,4,33.3,12c6.1,6.2,10,14,11.6,23.4c0.7,4.2,1.1,13.2,1.1,27
			c0,13.9-0.4,23-1.1,27.3c-1.6,9.8-5.5,17.7-11.6,24c-8,8-19.1,12-33.3,12h-6v-21.9h3.7c8,0,14.1-2.6,18.3-7.8
			c3.6-4.3,5.5-15.6,5.5-33.7c0-17.5-1.8-28.4-5.5-32.8c-4.2-5.2-10.3-7.8-18.3-7.8h-18.5V144.6z"/>
		<path class="st5" d="M387.7,130.4c-9.6,9.5-21.2,14.3-34.7,14.3c-28.1,0-42.1-15.6-42.1-46.7c0-14.6,3.6-26,10.9-34.4
			c7.2-8.1,16.7-12.2,28.7-12.2c12.5,0,22.3,4.1,29.4,12.3c6.9,8,10.4,18.4,10.4,31.2v10.2h-42.5V89.5H368c-0.2-3.5-0.9-6.8-2.1-9.7
			c-2.9-6.3-8.1-9.5-15.3-9.5c-7.3,0-12.3,3.2-15.2,9.5c-1.3,2.9-2,6.2-2.1,9.7v15.7c0,0.1,0,0.2,0,0.4c0,0.2,0,0.4,0,0.5v0.9h0.2
			c0.4,5.5,2.2,9.9,5.6,13.2c3.5,3.5,8.2,5.3,14.1,5.3c8.1,0,15-2.9,20.6-8.6L387.7,130.4z M318.1,116.4c0-0.1,0,0.2,0,0.9V116.4z"
			/>
		<path class="st5" d="M438.5,144.6c-8.8,0-15.6-2.8-20.4-8.3c-4.2-4.8-6.3-10.8-6.3-18V19.1h22.9V117c0,5.5,2.7,8.3,8.1,8.3h8.8
			v19.4H438.5z"/>
		<path class="st5" d="M517.6,86.1c0-5.1-1.4-8.7-4.1-10.9c-2.7-2.2-7.1-3.3-13.2-3.3c-7.5,0-13.5,2.5-18,7.4l-14.8-14.1
			c4.5-4.7,9.3-8,14.5-9.9c4.8-1.8,11.2-2.6,19.2-2.6c26.4,0,39.7,10.7,39.7,32.1v59.8h-22.7v-7.8c-5.9,5.8-13.5,8.6-22.9,8.6
			c-10.3,0-18.2-2.6-23.6-7.9c-5.2-5.2-7.8-12-7.8-20.4c0-7.6,2.6-13.9,7.8-18.7c5.8-5.1,13.8-7.6,24.2-7.6h6.9v15.5h-3.3
			c-8.7,0-13,3.4-13,10.2c0,6.9,4.5,10.4,13.4,10.4c6.6,0,11.5-1.5,14.6-4.4c2.2-2,3.3-5.8,3.3-11.5V86.1z"/>
		<path class="st5" d="M621.8,138.3c-7.1,4.9-16.3,7.4-27.7,7.4c-17.3,0-30.3-4.4-39.1-13.2l15-15c5.8,5.8,13.9,8.6,24.5,8.6
			c10.8,0,16.2-3.2,16.2-9.5c0-5.1-3.2-7.9-9.7-8.5l-14.5-1.4c-17.9-1.8-26.8-10.3-26.8-25.7c0-9.2,3.6-16.5,10.8-21.9
			c6.6-4.9,14.8-7.4,24.7-7.4c15.7,0,27.4,3.6,35.1,10.8l-14.1,14.3c-4.6-4.1-11.7-6.2-21.3-6.2c-8.7,0-13,2.9-13,8.8
			c0,4.7,3.2,7.3,9.5,7.9l14.5,1.4c18.2,1.8,27.3,10.8,27.3,27C633.1,125.5,629.3,133,621.8,138.3z"/>
		<path class="st5" d="M675.2,178.3h-22.7V54h22v8.5c5.8-6.3,13.3-9.5,22.7-9.5c9.3,0,16.6,2.8,22,8.3c6.2,6.1,9.3,18.8,9.3,38.1
			c0,19.5-3.1,32.3-9.3,38.4c-5.4,5.5-12.8,8.3-22,8.3c-2.6,0-5.1-0.2-7.4-0.7v-19.7c0.6,0,0.8,0,0.7,0c6.2,0,10.5-2.5,12.7-7.6
			c1.8-3.8,2.6-10,2.6-18.7c0-8.6-0.9-14.7-2.6-18.5c-2.2-4.9-6.5-7.4-12.7-7.4c-6.2,0-10.5,2.5-12.9,7.4c-1.6,3.8-2.5,9.9-2.5,18.5
			V178.3z"/>
		<path class="st5" d="M779.2,144.6c-8.8-1.3-15.9-4.9-21.3-10.8c-6.9-7.2-10.4-19-10.4-35.6c0-16.5,3.5-28.3,10.4-35.4
			c7.1-7.5,16.5-11.3,28.2-11.3c12,0,21.5,3.8,28.6,11.3c6.8,7.2,10.2,19,10.2,35.4c0,16.6-3.4,28.4-10.2,35.6
			c-5.4,5.6-12.3,9.2-20.8,10.6v-21.7c1.2-0.7,2.2-1.4,3-2.1c3.5-3.5,5.3-11,5.3-22.4c0-11.3-1.8-18.6-5.3-22
			c-2.7-2.7-6.3-4.1-10.8-4.1c-4.3,0-7.9,1.4-10.6,4.1c-3.4,3.4-5.1,10.8-5.1,22c0,11.4,1.7,18.9,5.1,22.4c1.1,0.9,2.3,1.8,3.7,2.5
			V144.6z"/>
		<path class="st5" d="M896.6,77.8c-3.6-3.6-7.7-5.5-12.2-5.5c-3.9,0-7.2,1.4-10,4.1c-3.2,3.2-4.8,7.5-4.8,12.9v55.4h-22.9V52.8
			h22.4v8.8c5.5-6.6,13.2-9.9,23.1-9.9c8.7,0,15.9,2.9,21.7,8.6L896.6,77.8z"/>
		<path class="st5" d="M955.7,144.6c-8.7,0-15.5-2.8-20.3-8.3c-4.2-4.8-6.3-10.8-6.3-18V72.9h-9.7V55.4h9.7V28.3H952v27.1h16.2v17.5
			H952V117c0,5.5,2.6,8.3,7.9,8.3h8.3v19.4H955.7z"/>
	</g>
</g>
</svg>
